<svg height="480pt" viewBox="0 -16 480 480" width="480pt" xmlns="http://www.w3.org/2000/svg"><path d="m240 343.996094h208v16h-208zm0 0"/><path d="m32 344h112v16h-112zm0 0"/><path d="m0 344h16v16h-16zm0 0"/><path d="m192 320c-17.671875 0-32 14.328125-32 32s14.328125 32 32 32 32-14.328125 32-32c-.019531-17.664062-14.335938-31.980469-32-32zm0 48c-8.835938 0-16-7.164062-16-16s7.164062-16 16-16 16 7.164062 16 16c-.007812 8.832031-7.167969 15.992188-16 16zm0 0"/><path d="m319.992188 408h128.007812v16h-128.007812zm0 0"/><path d="m32 408h191.992188v16h-191.992188zm0 0"/><path d="m0 408h16v16h-16zm0 0"/><path d="m240 416c0 17.671875 14.328125 32 32 32s32-14.328125 32-32-14.328125-32-32-32c-17.664062.019531-31.980469 14.335938-32 32zm48 0c0 8.835938-7.164062 16-16 16s-16-7.164062-16-16 7.164062-16 16-16c8.832031.007812 15.992188 7.167969 16 16zm0 0"/><path d="m464 344h16v16h-16zm0 0"/><path d="m464 408h16v16h-16zm0 0"/><path d="m406.625 174.625c12.5-12.492188 12.5-32.757812 0-45.25l-11.3125 11.3125c6.25 6.246094 6.25 16.378906 0 22.625zm0 0"/><path d="m429.253906 197.253906c24.996094-24.992187 24.996094-65.515625 0-90.507812l-11.3125 11.3125c18.746094 18.746094 18.746094 49.136718 0 67.882812zm0 0"/><path d="m440.570312 208.570312 11.3125 11.3125c37.425782-37.515624 37.425782-98.25 0-135.765624l-11.3125 11.3125c31.1875 31.265624 31.1875 81.875 0 113.140624zm0 0"/><path d="m24 192h24v8c.015625 13.25 10.75 23.984375 24 24h82.183594c26.511718 49.234375 77.898437 79.957031 133.816406 80h8c13.25-.015625 23.984375-10.75 24-24v-80h32c13.25-.015625 23.984375-10.75 24-24v-48c-.015625-13.25-10.75-23.984375-24-24h-32v-80c-.015625-13.25-10.75-23.984375-24-24h-8c-55.917969.0429688-107.304688 30.765625-133.816406 80h-82.183594c-13.25.015625-23.984375 10.75-24 24v8h-24c-13.25.015625-23.984375 10.75-24 24v32c.015625 13.25 10.75 23.984375 24 24zm296-72h32c4.414062.003906 7.996094 3.585938 8 8v48c-.003906 4.414062-3.585938 7.996094-8 8h-32zm-32-104h8c4.414062.003906 7.996094 3.585938 8 8v256c-.003906 4.414062-3.585938 7.996094-8 8h-8c-75.109375 0-136-60.890625-136-136s60.890625-136 136-136zm-224 88c.003906-4.414062 3.585938-7.996094 8-8h74.824219c-14.433594 35.9375-14.433594 76.0625 0 112h-74.824219c-4.414062-.003906-7.996094-3.585938-8-8zm-48 32c.003906-4.414062 3.585938-7.996094 8-8h24v48h-24c-4.414062-.003906-7.996094-3.585938-8-8zm0 0"/></svg>