<svg height="480pt" viewBox="0 0 480.0175 480" width="480pt" xmlns="http://www.w3.org/2000/svg"><path d="m322.679688 344.730469c24.601562-41.699219 14.355468-95.1875-23.914063-124.839844-38.269531-29.65625-92.621094-26.222656-126.855469 8.011719s-37.667968 88.585937-8.011718 126.855468c29.65625 38.273438 83.140624 48.515626 124.839843 23.914063l7.847657 7.847656c9.371093 9.371094 24.570312 9.371094 33.941406 0 9.371094-9.375 9.371094-24.570312 0-33.941406zm-82.664063 31.277343c-36.171875.222657-68.050781-23.710937-77.929687-58.507812-9.882813-34.796875 4.664062-71.914062 35.554687-90.734375 30.894531-18.820313 70.546875-14.71875 96.9375 10.019531 26.386719 24.742188 33.035156 64.046875 16.246094 96.089844l-8.582031-8.582031c-9.371094-9.371094-24.566407-9.371094-33.941407 0-9.371093 9.371093-9.371093 24.570312 0 33.941406l8.582031 8.582031c-11.367187 5.992188-24.015624 9.148438-36.867187 9.191406zm79.199219-.804687c-3.125 3.121094-8.191406 3.121094-11.316406 0l-28.28125-28.28125c-3.125-3.125-3.125-8.191406 0-11.316406 3.121093-3.121094 8.1875-3.121094 11.3125 0l28.285156 28.285156c3.121094 3.125 3.121094 8.1875 0 11.3125zm0 0"/><path d="m344.015625 144.007812h-208c-13.246094.015626-23.984375 10.753907-24 24v288c.015625 13.25 10.753906 23.988282 24 24h208c13.25-.011718 23.988281-10.75 24-24v-288c-.011719-13.246093-10.75-23.984374-24-24zm8 312c0 4.417969-3.582031 8-8 8h-208c-4.414063 0-7.996094-3.582031-8-8v-288c.003906-4.414062 3.585937-7.996093 8-8h208c4.417969.003907 8 3.585938 8 8zm0 0"/><path d="m240.015625 272.007812c-13.253906 0-24 10.746094-24 24 0 13.257813 10.746094 24 24 24 13.257813 0 24-10.742187 24-24-.011719-13.246093-10.75-23.984374-24-24zm0 32c-4.417969 0-8-3.582031-8-8 0-4.417968 3.582031-8 8-8 4.421875 0 8 3.582032 8 8 0 4.417969-3.582031 8-8 8zm0 0"/><path d="m176.015625 192.007812c0 8.835938-7.160156 16-16 16-8.835937 0-16-7.164062-16-16 0-8.835937 7.164063-16 16-16 8.839844 0 16 7.164063 16 16zm0 0"/><path d="m336.015625 192.007812c0 8.835938-7.160156 16-16 16-8.835937 0-16-7.164062-16-16 0-8.835937 7.164063-16 16-16 8.839844 0 16 7.164063 16 16zm0 0"/><path d="m176.015625 432.007812c0 8.835938-7.160156 16-16 16-8.835937 0-16-7.164062-16-16 0-8.835937 7.164063-16 16-16 8.839844 0 16 7.164063 16 16zm0 0"/><path d="m336.015625 432.007812c0 8.835938-7.160156 16-16 16-8.835937 0-16-7.164062-16-16 0-8.835937 7.164063-16 16-16 8.839844 0 16 7.164063 16 16zm0 0"/><path d="m415.5625 152.398438c-3.890625-32.152344-31.15625-56.347657-63.546875-56.390626h-40.304687c-4.179688-54.171874-49.359376-95.9999995-103.695313-95.9999995-54.332031 0-99.511719 41.8281255-103.695313 95.9999995h-8.304687c-54.085937 1.1875-97.019531 45.910157-96 100 0 49.007813 44.859375 92 96 92v-16c-42.617187 0-80-35.515624-80-76-1.023437-45.253906 34.75-82.816406 80-84h24v-8c0-48.601562 39.402344-88 88-88 48.601563 0 88 39.398438 88 88v8h56c26.5.03125 47.972656 21.503907 48 48v8h8c30.914063.039063 55.964844 25.089844 56 56 0 26.914063-24.601563 48-56 48h-24v16h24c40.375 0 72-28.109374 72-64-.042969-36.824218-27.832031-67.699218-64.453125-71.609374zm0 0"/></svg>