<svg height="480pt" viewBox="0 0 480 480" width="480pt" xmlns="http://www.w3.org/2000/svg"><path d="m456 272v-97.472656c10.527344-3.703125 17.101562-14.1875 15.847656-25.277344s-10.007812-19.84375-21.097656-21.097656-21.574219 5.320312-25.277344 15.847656h-25.472656v16h25.476562c2.414063 6.777344 7.746094 12.109375 14.523438 14.523438v97.476562h-56v16h72c4.417969.003906 7.996094 3.582031 8 8v40h-120v16h120v48h-128v-32h-16v32h-64v-8h-16v40h-65.472656c-2.417969-6.777344-7.75-12.109375-14.527344-14.527344v-17.472656h-16v17.472656c-10.527344 3.703125-17.101562 14.1875-15.847656 25.277344s10.007812 19.84375 21.097656 21.097656 21.574219-5.320312 25.277344-15.847656h65.472656v8c.015625 13.25 10.75 23.984375 24 24h192c13.25-.015625 23.984375-10.75 24-24v-160c-.015625-13.25-10.75-23.984375-24-24zm-8-112c-4.417969 0-8-3.582031-8-8s3.582031-8 8-8 8 3.582031 8 8c-.003906 4.417969-3.582031 7.996094-8 8zm-296 288c-4.417969 0-8-3.582031-8-8s3.582031-8 8-8 8 3.582031 8 8c-.003906 4.417969-3.582031 7.996094-8 8zm168 16h-56c-4.417969-.003906-7.996094-3.582031-8-8v-40h64zm144-8c-.003906 4.417969-3.582031 7.996094-8 8h-120v-48h128zm0 0"/><path d="m392 304h16v16h-16zm0 0"/><path d="m424 304h16v16h-16zm0 0"/><path d="m360 368h16v16h-16zm0 0"/><path d="m392 368h16v16h-16zm0 0"/><path d="m424 368h16v16h-16zm0 0"/><path d="m360 432h16v16h-16zm0 0"/><path d="m392 432h16v16h-16zm0 0"/><path d="m424 432h16v16h-16zm0 0"/><path d="m192 384c106.039062 0 192-85.960938 192-192s-85.960938-192-192-192-192 85.960938-192 192c.121094 105.988281 86.011719 191.878906 192 192zm50.511719-23.421875c18.871093-20.644531 32.554687-45.488281 39.921875-72.46875 14.308594 5.4375 27.878906 12.652344 40.386718 21.480469-21.59375 24.03125-49.375 41.667968-80.308593 50.988281zm90.492187-63.359375c-14.292968-10.183594-29.867187-18.429688-46.324218-24.523438 5.703124-23.824218 8.792968-48.199218 9.214843-72.695312h71.902344c-1.558594 35.167969-13.683594 69.046875-34.792969 97.21875zm0-210.4375c21.109375 28.171875 33.234375 62.050781 34.792969 97.21875h-71.902344c-.421875-24.496094-3.511719-48.871094-9.214843-72.695312 16.457031-6.09375 32.03125-14.339844 46.324218-24.523438zm-10.183594-12.371094c-12.507812 8.828125-26.078124 16.042969-40.386718 21.480469-7.367188-26.980469-21.050782-51.824219-39.921875-72.46875 30.933593 9.320313 58.714843 26.957031 80.308593 50.988281zm-122.820312-57.613281c27.984375 5.320313 52.65625 38.152344 66.957031 84.453125-21.765625 6.410156-44.277343 9.925781-66.957031 10.460938zm0 110.910156c24.117188-.554687 48.054688-4.28125 71.199219-11.089843 5.304687 22.085937 8.21875 44.675781 8.695312 67.382812h-79.894531zm0 72.292969h79.894531c-.476562 22.707031-3.390625 45.296875-8.695312 67.382812-23.144531-6.808593-47.082031-10.535156-71.199219-11.089843zm0 72.289062c22.679688.535157 45.191406 4.050782 66.957031 10.464844-14.300781 46.296875-38.972656 79.128906-66.957031 84.449219zm-149.003906 24.929688c-21.109375-28.171875-33.234375-62.050781-34.792969-97.21875h71.902344c.421875 24.496094 3.511719 48.871094 9.214843 72.695312-16.457031 6.09375-32.03125 14.339844-46.324218 24.523438zm10.183594 12.371094c12.507812-8.828125 26.078124-16.042969 40.386718-21.480469 7.367188 26.980469 21.050782 51.824219 39.921875 72.46875-30.933593-9.320313-58.714843-26.957031-80.308593-50.988281zm122.820312 57.613281c-27.984375-5.320313-52.65625-38.152344-66.957031-84.453125 21.765625-6.410156 44.277343-9.925781 66.957031-10.460938zm0-110.910156c-24.117188.554687-48.054688 4.28125-71.199219 11.089843-5.304687-22.085937-8.21875-44.675781-8.695312-67.382812h79.894531zm0-72.292969h-79.894531c.476562-22.707031 3.390625-45.296875 8.695312-67.382812 23.144531 6.808593 47.082031 10.535156 71.199219 11.089843zm0-167.203125v94.914063c-22.679688-.535157-45.191406-4.050782-66.957031-10.460938 14.300781-46.300781 38.972656-79.132812 66.957031-84.453125zm-42.511719 6.625c-18.871093 20.644531-32.554687 45.488281-39.921875 72.46875-14.308594-5.4375-27.878906-12.652344-40.386718-21.480469 21.59375-24.03125 49.375-41.667968 80.308593-50.988281zm-90.492187 63.359375c14.292968 10.183594 29.867187 18.429688 46.324218 24.523438-5.703124 23.824218-8.792968 48.199218-9.214843 72.695312h-71.902344c1.558594-35.167969 13.683594-69.046875 34.792969-97.21875zm0 0"/><path d="m80 393.472656v-25.472656h-16v25.472656c-6.777344 2.417969-12.109375 7.75-14.527344 14.527344h-17.472656v16h17.476562c3.699219 10.527344 14.1875 17.101562 25.277344 15.847656s19.839844-10.007812 21.09375-21.097656-5.320312-21.574219-15.847656-25.277344zm-8 30.527344c-4.417969 0-8-3.582031-8-8s3.582031-8 8-8 8 3.582031 8 8c-.003906 4.417969-3.582031 7.996094-8 8zm0 0"/><path d="m0 408h16v16h-16zm0 0"/><path d="m424 57.472656c-6.777344 2.417969-12.109375 7.75-14.527344 14.527344h-41.472656v16h41.476562c3.699219 10.527344 14.1875 17.101562 25.277344 15.847656s19.839844-10.007812 21.09375-21.097656-5.320312-21.574219-15.847656-25.277344v-25.472656h-16zm8 14.527344c4.417969 0 8 3.582031 8 8s-3.582031 8-8 8-8-3.582031-8-8c.003906-4.417969 3.582031-7.996094 8-8zm0 0"/><path d="m424 0h16v16h-16zm0 0"/><path d="m280 432h16v16h-16zm0 0"/></svg>