<svg height="480pt" viewBox="0 0 480 480" width="480pt" xmlns="http://www.w3.org/2000/svg"><path d="m208 432h16v16h-16zm0 0"/><path d="m456 312h-24v-32c-.015625-13.25-10.75-23.984375-24-24h-168v16h40v192h-256c-4.417969-.003906-7.996094-3.582031-8-8v-176c.003906-4.417969 3.582031-7.996094 8-8h168v-16h-168c-13.25.015625-23.984375 10.75-24 24v176c.015625 13.25 10.75 23.984375 24 24h384c13.25-.015625 23.984375-10.75 24-24v-32h24c13.25-.015625 23.984375-10.75 24-24v-64c-.015625-13.25-10.75-23.984375-24-24zm-40 144c-.003906 4.417969-3.582031 7.996094-8 8h-112v-192h112c4.417969.003906 7.996094 3.582031 8 8zm48-56c-.003906 4.417969-3.582031 7.996094-8 8h-24v-80h24c4.417969.003906 7.996094 3.582031 8 8zm0 0"/><path d="m138.746094 175.378906 11.886718 23.769532c2.6875 5.441406 8.242188 8.875 14.3125 8.851562h7.054688l19.203125 25.597656c3.027344 4.019532 7.765625 6.390625 12.796875 6.402344h4v176h16v-176h4c5.03125-.011719 9.769531-2.378906 12.796875-6.398438l19.203125-25.601562h7.054688c6.066406.023438 11.621093-3.40625 14.3125-8.84375l11.886718-23.777344c10.941406-2.460937 18.722656-12.164062 18.746094-23.378906v-56c-.015625-13.25-10.75-23.984375-24-24h-32v-72h-16v72h-16v-72h-16v72h-16v-72h-16v72h-32c-13.25.015625-23.984375 10.75-24 24v56c.023438 11.214844 7.804688 20.921875 18.746094 23.378906zm89.253906 48.621094h-24l-12-16h48zm39.054688-32h-102.109376l-8-16h118.109376zm-131.054688-96c.003906-4.417969 3.582031-7.996094 8-8h144c4.417969.003906 7.996094 3.582031 8 8v56c-.003906 4.417969-3.582031 7.996094-8 8h-144c-4.417969-.003906-7.996094-3.582031-8-8zm0 0"/></svg>