<svg height="480pt" viewBox="-96 0 480 480" width="480pt" xmlns="http://www.w3.org/2000/svg"><path d="m0 24v432c.015625 13.25 10.75 23.984375 24 24h240c13.25-.015625 23.984375-10.75 24-24v-432c-.015625-13.25-10.75-23.984375-24-24h-240c-13.25.015625-23.984375 10.75-24 24zm272 432c-.003906 4.417969-3.582031 7.996094-8 8h-240c-4.417969-.003906-7.996094-3.582031-8-8v-56h256zm0-432v360h-256v-360c.003906-4.417969 3.582031-7.996094 8-8h240c4.417969.003906 7.996094 3.582031 8 8zm0 0"/><path d="m160 432c0 8.835938-7.164062 16-16 16s-16-7.164062-16-16 7.164062-16 16-16 16 7.164062 16 16zm0 0"/><path d="m72 424h24v16h-24zm0 0"/><path d="m192 424h24v16h-24zm0 0"/><path d="m144 296c53.019531 0 96-42.980469 96-96s-42.980469-96-96-96-96 42.980469-96 96c.058594 52.996094 43.003906 95.941406 96 96zm0-176c44.183594 0 80 35.816406 80 80s-35.816406 80-80 80-80-35.816406-80-80c.050781-44.160156 35.839844-79.949219 80-80zm0 0"/><path d="m115.714844 228.285156-11.3125-11.316406 11.3125-11.3125 11.316406 11.3125 33.9375-33.9375-11.3125-11.316406 11.3125-11.3125 11.316406 11.3125c6.238282 6.253906 6.238282 16.375 0 22.628906l-33.941406 33.941406c-6.253906 6.238282-16.375 6.238282-22.628906 0zm0 0"/></svg>