<svg height="480pt" viewBox="-16 0 480 480" width="480pt" xmlns="http://www.w3.org/2000/svg"><path d="m448 456v-192c-.03125-10.136719-6.4375-19.15625-16-22.527344v-17.355468c-.011719-8.832032-7.167969-15.988282-16-16h-48c-8.832031.011718-15.988281 7.167968-16 16v15.882812h-18.457031l-18-48h12.457031c13.25-.015625 23.984375-10.75 24-24v-48c-.015625-13.25-10.75-23.984375-24-24h-144c-13.25.015625-23.984375 10.75-24 24v48c.015625 13.25 10.75 23.984375 24 24h12.457031l-18 48h-26.457031v-16c-.011719-8.832031-7.167969-15.988281-16-16h-8v-16c-.011719-8.832031-7.167969-15.988281-16-16h-16c-8.832031.011719-15.988281 7.167969-16 16v16h-8c-8.832031.011719-15.988281 7.167969-16 16v16h-32c-13.25.015625-23.984375 10.75-24 24v192c.015625 13.25 10.75 23.984375 24 24h400c13.25-.015625 23.984375-10.75 24-24zm-80-231.882812h48v15.882812h-48zm-184-48.117188c-4.417969-.003906-7.996094-3.582031-8-8v-48c.003906-4.417969 3.582031-7.996094 8-8h144c4.417969.003906 7.996094 3.582031 8 8v48c-.003906 4.417969-3.582031 7.996094-8 8zm29.542969 16h84.914062l18 48h-120.914062zm-117.542969 0h16v16h-16zm-24 32h64v16h-64zm24 240h-72c-4.417969-.003906-7.996094-3.582031-8-8v-192c.003906-4.417969 3.582031-7.996094 8-8h72zm16-208h312c4.417969.003906 7.996094 3.582031 8 8v192c-.003906 4.417969-3.582031 7.996094-8 8h-312zm0 0"/><path d="m256 272c-48.601562 0-88 39.398438-88 88s39.398438 88 88 88 88-39.398438 88-88c-.054688-48.578125-39.421875-87.945312-88-88zm0 160c-39.765625 0-72-32.234375-72-72s32.234375-72 72-72 72 32.234375 72 72c-.042969 39.746094-32.253906 71.957031-72 72zm0 0"/><path d="m384 432c0 8.835938-7.164062 16-16 16s-16-7.164062-16-16 7.164062-16 16-16 16 7.164062 16 16zm0 0"/><path d="m248 0h16v32h-16zm0 0"/><path d="m142.863281 50.179688 11.3125-11.3125 22.628907 22.625-11.3125 11.3125zm0 0"/><path d="m104 144h32v16h-32zm0 0"/><path d="m376 144h32v16h-32zm0 0"/><path d="m335.195312 61.492188 22.628907-22.625 11.3125 11.3125-22.628907 22.625zm0 0"/></svg>