<svg height="479pt" viewBox="-63 1 479 479.99991" width="479pt" xmlns="http://www.w3.org/2000/svg"><path d="m352.5 144c-.039062-35.328125-28.671875-63.960938-64-64h-24.359375c-4.140625-45.3125-42.136719-80-87.640625-80s-83.5 34.6875-87.640625 80h-24.359375c-35.347656 0-64 28.652344-64 64s28.652344 64 64 64h88v-16h-88c-26.507812 0-48-21.492188-48-48s21.492188-48 48-48h40v-8c0-39.765625 32.234375-72 72-72s72 32.234375 72 72v8h40c26.507812 0 48 21.492188 48 48s-21.492188 48-48 48h-88v16h88c35.328125-.039062 63.960938-28.671875 64-64zm0 0"/><path d="m320.5 456v-136c-.015625-13.25-10.75-23.984375-24-24h-16v-17.472656c10.527344-3.703125 17.101562-14.1875 15.847656-25.277344s-10.007812-19.84375-21.097656-21.097656-21.574219 5.320312-25.277344 15.847656h-65.472656v-100.6875l18.34375 18.34375 11.3125-11.3125-37.65625-37.65625-37.65625 37.65625 11.3125 11.3125 18.34375-18.34375v100.6875h-65.472656c-3.703125-10.527344-14.1875-17.105469-25.277344-15.847656-11.089844 1.253906-19.84375 10.003906-21.097656 21.09375s5.320312 21.578125 15.847656 25.277344v25.476562h-48c-13.25.015625-23.984375 10.75-24 24v96c.015625 13.25 10.75 23.984375 24 24h48v16h-24v16h64v-16h-24v-16h48c13.25-.015625 23.984375-10.75 24-24v-96c-.015625-13.25-10.75-23.984375-24-24h-48v-25.472656c6.777344-2.417969 12.109375-7.75 14.527344-14.527344h146.945312c2.417969 6.777344 7.75 12.109375 14.527344 14.523438v17.476562h-48c-13.25.015625-23.984375 10.75-24 24v136c.015625 13.25 10.75 23.984375 24 24h80c13.25-.015625 23.984375-10.75 24-24zm-176-32c-.003906 4.417969-3.582031 7.996094-8 8h-112c-4.417969-.003906-7.996094-3.582031-8-8v-16h128zm-8-104c4.417969.003906 7.996094 3.582031 8 8v64h-128v-64c.003906-4.417969 3.582031-7.996094 8-8zm-56-56c-4.417969 0-8-3.582031-8-8s3.582031-8 8-8 8 3.582031 8 8c-.003906 4.417969-3.582031 7.996094-8 8zm192-16c4.417969 0 8 3.582031 8 8s-3.582031 8-8 8-8-3.582031-8-8c.003906-4.417969 3.582031-7.996094 8-8zm-64 72c.003906-4.417969 3.582031-7.996094 8-8h80c4.417969.003906 7.996094 3.582031 8 8v104h-96zm0 136v-16h96v16c-.003906 4.417969-3.582031 7.996094-8 8h-80c-4.417969-.003906-7.996094-3.582031-8-8zm0 0"/></svg>