<svg height="480pt" viewBox="0 0 480 480" width="480pt" xmlns="http://www.w3.org/2000/svg"><path d="m232 304v128c-8.832031.007812-15.992188 7.167969-16 16v16c.007812 8.832031 7.167969 15.992188 16 16h16c8.832031-.007812 15.992188-7.167969 16-16v-16c-.007812-8.832031-7.167969-15.992188-16-16v-128zm16.011719 160h-16.011719v-16h16zm0 0"/><path d="m288 304v56c.015625 13.25 10.75 23.984375 24 24h8c4.414062.003906 7.996094 3.585938 8 8v40c-8.832031.007812-15.992188 7.167969-16 16v16c.007812 8.832031 7.167969 15.992188 16 16h16c8.832031-.007812 15.992188-7.167969 16-16v-16c-.007812-8.832031-7.167969-15.992188-16-16v-40c-.015625-13.25-10.75-23.984375-24-24h-8c-4.414062-.003906-7.996094-3.585938-8-8v-56zm56 144 .011719 16h-16.011719v-16zm0 0"/><path d="m376 304v72c.015625 13.25 10.75 23.984375 24 24h16c4.414062.003906 7.996094 3.585938 8 8v24c-8.832031.007812-15.992188 7.167969-16 16v16c.007812 8.832031 7.167969 15.992188 16 16h16c8.832031-.007812 15.992188-7.167969 16-16v-16c-.007812-8.832031-7.167969-15.992188-16-16v-24c-.015625-13.25-10.75-23.984375-24-24h-16c-4.414062-.003906-7.996094-3.585938-8-8v-72zm64 144 .011719 16h-16.011719v-16zm0 0"/><path d="m88 376c-.003906 4.414062-3.585938 7.996094-8 8h-16c-13.25.015625-23.984375 10.75-24 24v24c-8.832031.007812-15.992188 7.167969-16 16v16c.007812 8.832031 7.167969 15.992188 16 16h16c8.832031-.007812 15.992188-7.167969 16-16v-16c-.007812-8.832031-7.167969-15.992188-16-16v-24c.003906-4.414062 3.585938-7.996094 8-8h16c13.25-.015625 23.984375-10.75 24-24v-72h-16zm-31.988281 88h-16.011719v-16h16zm0 0"/><path d="m176 360c-.003906 4.414062-3.585938 7.996094-8 8h-8c-13.25.015625-23.984375 10.75-24 24v40c-8.832031.007812-15.992188 7.167969-16 16v16c.007812 8.832031 7.167969 15.992188 16 16h16c8.832031-.007812 15.992188-7.167969 16-16v-16c-.007812-8.832031-7.167969-15.992188-16-16v-40c.003906-4.414062 3.585938-7.996094 8-8h8c13.25-.015625 23.984375-10.75 24-24v-56h-16zm-23.988281 104h-16.011719v-16h16zm0 0"/><path d="m416 160h-.496094c-4.074218-31.980469-31.265625-55.957031-63.503906-56h-24c0-57.4375-46.5625-104-104-104s-104 46.5625-104 104v8h-32c-48.601562 0-88 39.398438-88 88s39.398438 88 88 88h328c35.347656 0 64-28.652344 64-64s-28.652344-64-64-64zm0 112h-328c-39.765625 0-72-32.234375-72-72s32.234375-72 72-72h48v-24c0-48.601562 39.398438-88 88-88s88 39.398438 88 88v16h40c26.496094.027344 47.972656 21.503906 48 48v8h16c26.507812 0 48 21.492188 48 48s-21.492188 48-48 48zm0 0"/></svg>