<svg height="480pt" viewBox="0 1 480 479" width="480pt" xmlns="http://www.w3.org/2000/svg"><path d="m416 80.5h-16.359375c-4.140625-45.3125-42.136719-80-87.640625-80s-83.5 34.6875-87.640625 80h-24.359375c-16.757812-.042969-32.851562 6.53125-44.789062 18.289062l11.203124 11.421876c8.953126-8.816407 21.023438-13.742188 33.585938-13.710938h40v-8c0-39.765625 32.234375-72 72-72s72 32.234375 72 72v8h32c26.507812 0 48 21.492188 48 48s-21.492188 48-48 48h-16v16h16c35.347656 0 64-28.652344 64-64s-28.652344-64-64-64zm0 0"/><path d="m328 192.5h24v16h-24zm0 0"/><path d="m24 416.5h98.453125l18 48h-60.453125v16h144v-16h-10.453125l-18-48h28.453125v-16h-200c-4.417969-.003906-7.996094-3.582031-8-8v-56h208v-16h-208v-168c.003906-4.417969 3.582031-7.996094 8-8h264c4.417969.003906 7.996094 3.582031 8 8v104h16v-104c-.015625-13.25-10.75-23.984375-24-24h-264c-13.25.015625-23.984375 10.75-24 24v240c.015625 13.25 10.75 23.984375 24 24zm154.453125 0 18 48h-38.90625l-18-48zm0 0"/><path d="m384 256.5v-108.6875l18.34375 18.34375 11.3125-11.3125-37.65625-37.65625-37.65625 37.65625 11.3125 11.3125 18.34375-18.34375v108.6875zm0 0"/><path d="m456 272.5h-192c-13.25.015625-23.984375 10.75-24 24v160c.015625 13.25 10.75 23.984375 24 24h192c13.25-.015625 23.984375-10.75 24-24v-160c-.015625-13.25-10.75-23.984375-24-24zm-136 192h-56c-4.417969-.003906-7.996094-3.582031-8-8v-40h64zm0-64h-64v-48h64zm0-64h-64v-40c.003906-4.417969 3.582031-7.996094 8-8h56zm144 120c-.003906 4.417969-3.582031 7.996094-8 8h-120v-48h128zm0-56h-128v-48h128zm0-64h-128v-48h120c4.417969.003906 7.996094 3.582031 8 8zm0 0"/><path d="m360 304.5h16v16h-16zm0 0"/><path d="m392 304.5h16v16h-16zm0 0"/><path d="m424 304.5h16v16h-16zm0 0"/><path d="m360 368.5h16v16h-16zm0 0"/><path d="m392 368.5h16v16h-16zm0 0"/><path d="m424 368.5h16v16h-16zm0 0"/><path d="m360 432.5h16v16h-16zm0 0"/><path d="m392 432.5h16v16h-16zm0 0"/><path d="m424 432.5h16v16h-16zm0 0"/><path d="m168 368.5c0 8.835938-7.164062 16-16 16s-16-7.164062-16-16 7.164062-16 16-16 16 7.164062 16 16zm0 0"/><path d="m280 304.5h16v16h-16zm0 0"/><path d="m280 368.5h16v16h-16zm0 0"/><path d="m280 432.5h16v16h-16zm0 0"/></svg>