<svg height="480pt" viewBox="0 0 480 480" width="480pt" xmlns="http://www.w3.org/2000/svg"><path d="m285.316406 116.558594-14.445312 6.882812 40.628906 85.316406-21.613281 79.242188h-99.773438l-21.613281-79.242188 40.628906-85.316406-14.445312-6.882812-43.183594 90.683594 22.621094 82.941406c-8.578125 3.875-14.101563 12.40625-14.121094 21.816406v48c.015625 13.25 10.75 23.984375 24 24h112c13.25-.015625 23.984375-10.75 24-24v-48c-.019531-9.410156-5.542969-17.941406-14.121094-21.816406l22.621094-82.941406zm18.683594 243.441406c-.003906 4.414062-3.585938 7.996094-8 8h-112c-4.414062-.003906-7.996094-3.585938-8-8v-16h128zm0-32h-128v-16c.003906-4.414062 3.585938-7.996094 8-8h112c4.414062.003906 7.996094 3.585938 8 8zm0 0"/><path d="m232 112v90.226562c-6.273438 3.621094-9.328125 11-7.453125 17.996094 1.871094 6.996094 8.210937 11.859375 15.453125 11.859375s13.582031-4.863281 15.453125-11.859375c1.875-6.996094-1.179687-14.375-7.453125-17.996094v-90.226562zm0 0"/><path d="m272 0h-64c-8.832031.0078125-15.992188 7.167969-16 16v24h-74.226562c-3.621094-6.273438-11-9.328125-17.996094-7.453125-6.996094 1.871094-11.859375 8.210937-11.859375 15.453125s4.863281 13.582031 11.859375 15.453125c6.996094 1.875 14.375-1.179687 17.996094-7.453125h56.199218c-34.445312 17.730469-60.277344 48.613281-71.644531 85.648438l15.296875 4.703124c11.335938-36.78125 38.664062-66.480468 74.375-80.835937v14.484375c.007812 8.832031 7.167969 15.992188 16 16h64c8.832031-.007812 15.992188-7.167969 16-16v-14.484375c35.710938 14.355469 63.039062 44.054687 74.375 80.835937l15.296875-4.703124c-11.367187-37.035157-37.199219-67.917969-71.644531-85.648438h56.199218c3.621094 6.273438 11 9.328125 17.996094 7.453125 6.996094-1.871094 11.859375-8.210937 11.859375-15.453125s-4.863281-13.582031-11.859375-15.453125c-6.996094-1.875-14.375 1.179687-17.996094 7.453125h-74.226562v-24c-.007812-8.832031-7.167969-15.9921875-16-16zm0 80h-64l-.011719-64h64.011719zm0 0"/><path d="m464 424h-40v-240c-.015625-13.25-10.75-23.984375-24-24h-72v16h72c4.414062.003906 7.996094 3.585938 8 8v240h-336v-240c.003906-4.414062 3.585938-7.996094 8-8h72v-16h-72c-13.25.015625-23.984375 10.75-24 24v240h-40c-8.832031.007812-15.9921875 7.167969-16 16v16c.015625 13.25 10.75 23.984375 24 24h432c13.25-.015625 23.984375-10.75 24-24v-16c-.007812-8.832031-7.167969-15.992188-16-16zm0 32c-.003906 4.414062-3.585938 7.996094-8 8h-432c-4.414062-.003906-7.996094-3.585938-8-8v-16h448zm0 0"/></svg>