<svg height="480pt" viewBox="0 -24 480 480" width="480pt" xmlns="http://www.w3.org/2000/svg"><path d="m88 328c0 8.835938-7.164062 16-16 16s-16-7.164062-16-16 7.164062-16 16-16 16 7.164062 16 16zm0 0"/><path d="m216 296h16v64h-16zm0 0"/><path d="m184 296h16v64h-16zm0 0"/><path d="m248 296h16v64h-16zm0 0"/><path d="m280 296h16v64h-16zm0 0"/><path d="m312 296h16v64h-16zm0 0"/><path d="m344 296h16v64h-16zm0 0"/><path d="m376 296h16v64h-16zm0 0"/><path d="m408 296h16v64h-16zm0 0"/><path d="m88 200c0 8.835938-7.164062 16-16 16s-16-7.164062-16-16 7.164062-16 16-16 16 7.164062 16 16zm0 0"/><path d="m216 168h16v64h-16zm0 0"/><path d="m184 168h16v64h-16zm0 0"/><path d="m248 168h16v64h-16zm0 0"/><path d="m280 168h16v64h-16zm0 0"/><path d="m312 168h16v64h-16zm0 0"/><path d="m344 168h16v64h-16zm0 0"/><path d="m376 168h16v64h-16zm0 0"/><path d="m408 168h16v64h-16zm0 0"/><path d="m480 24c-.015625-13.25-10.75-23.984375-24-24h-432c-13.25.015625-23.984375 10.75-24 24v96c.0195312 5.925781 2.242188 11.628906 6.242188 16-4 4.371094-6.2226568 10.074219-6.242188 16v96c.0195312 5.925781 2.242188 11.628906 6.242188 16-4 4.371094-6.2226568 10.074219-6.242188 16v96c.015625 13.25 10.75 23.984375 24 24h27.054688l11.578124 23.148438c2.6875 5.441406 8.242188 8.875 14.3125 8.851562h30.109376c6.066406.023438 11.621093-3.40625 14.3125-8.84375l11.578124-23.15625h214.109376l11.578124 23.148438c2.6875 5.441406 8.242188 8.875 14.3125 8.851562h30.109376c6.066406.023438 11.621093-3.40625 14.3125-8.84375l11.578124-23.15625h27.054688c13.25-.015625 23.984375-10.75 24-24v-96c-.019531-5.925781-2.242188-11.628906-6.242188-16 4-4.371094 6.222657-10.074219 6.242188-16v-96c-.019531-5.925781-2.242188-11.628906-6.242188-16 4-4.371094 6.222657-10.074219 6.242188-16zm-372.945312 392h-30.109376l-8-16h46.109376zm20.945312-32h-104c-4.417969-.003906-7.996094-3.582031-8-8v-96c.003906-4.417969 3.582031-7.996094 8-8h104zm0-128h-104c-4.417969-.003906-7.996094-3.582031-8-8v-96c.003906-4.417969 3.582031-7.996094 8-8h104zm0-128h-104c-4.417969-.003906-7.996094-3.582031-8-8v-96c.003906-4.417969 3.582031-7.996094 8-8h104zm275.054688 288h-30.109376l-8-16h46.109376zm60.945312-40c-.003906 4.417969-3.582031 7.996094-8 8h-312v-112h312c4.417969.003906 7.996094 3.582031 8 8zm0-128c-.003906 4.417969-3.582031 7.996094-8 8h-312v-112h312c4.417969.003906 7.996094 3.582031 8 8zm0-128c-.003906 4.417969-3.582031 7.996094-8 8h-312v-112h312c4.417969.003906 7.996094 3.582031 8 8zm0 0"/><path d="m88 72c0 8.835938-7.164062 16-16 16s-16-7.164062-16-16 7.164062-16 16-16 16 7.164062 16 16zm0 0"/><path d="m216 40h16v64h-16zm0 0"/><path d="m184 40h16v64h-16zm0 0"/><path d="m248 40h16v64h-16zm0 0"/><path d="m280 40h16v64h-16zm0 0"/><path d="m312 40h16v64h-16zm0 0"/><path d="m344 40h16v64h-16zm0 0"/><path d="m376 40h16v64h-16zm0 0"/><path d="m408 40h16v64h-16zm0 0"/></svg>