<svg height="480pt" viewBox="-64 0 480 480.00388" width="480pt" xmlns="http://www.w3.org/2000/svg"><path d="m120 480.003906v-297.472656c9.5625-3.371094 15.972656-12.390625 16-22.527344v-33.472656c9.5625-3.371094 15.972656-12.390625 16-22.527344v-16h16v16c.015625 13.25 10.753906 23.984375 24 24h16c17.316406 0 33.890625-7.015625 45.945312-19.445312 12.054688-12.429688 18.5625-29.210938 18.03125-46.515625-1.964843-35.089844-31.183593-62.421875-66.328124-62.03906275h-13.648438c-13.246094.01562495-23.984375 10.74999975-24 23.99999975v16h-16v-16c-.011719-13.25-10.75-23.9843748-24-23.99999975h-32c-13.246094.01562495-23.984375 10.74999975-24 23.99999975v80c.03125 10.136719 6.441406 19.15625 16 22.523438v33.476562c.03125 10.136719 6.441406 19.15625 16 22.523438v297.476562zm64-456c.003906-4.417968 3.585938-7.996094 8-8h13.648438c26.519531-.441406 48.691406 20.054688 50.328124 46.523438.402344 12.980468-4.476562 25.570312-13.515624 34.890625-9.039063 9.324219-21.472657 14.585937-34.460938 14.585937h-16c-4.414062-.003906-7.996094-3.582031-8-8zm-32 32h16v16h-16zm-32 104c0 4.417969-3.578125 8-8 8-4.417969 0-8-3.582031-8-8v-32h16zm-24-48c-4.414062-.003906-7.996094-3.582031-8-8v-80c.003906-4.417968 3.585938-7.996094 8-8h32c4.417969.003906 8 3.582032 8 8v80c0 4.417969-3.582031 7.996094-8 8zm0 0"/><path d="m272 280.003906h16c17.316406 0 33.890625-7.015625 45.945312-19.445312 12.054688-12.429688 18.5625-29.210938 18.03125-46.515625-1.964843-35.089844-31.183593-62.421875-66.328124-62.039063h-13.648438c-13.246094.015625-23.984375 10.75-24 24v16h-16v-16c-.011719-13.25-10.75-23.984375-24-24h-32c-13.246094.015625-23.984375 10.75-24 24v80c.03125 10.136719 6.441406 19.15625 16 22.523438v33.476562c.03125 10.136719 6.441406 19.15625 16 22.523438v145.476562h16v-145.472656c9.5625-3.371094 15.972656-12.390625 16-22.527344v-33.472656c9.5625-3.371094 15.972656-12.390625 16-22.527344v-16h16v16c.015625 13.25 10.753906 23.984375 24 24zm-8-104c.003906-4.417968 3.585938-7.996094 8-8h13.648438c26.519531-.441406 48.691406 20.054688 50.328124 46.523438.402344 12.980468-4.476562 25.570312-13.515624 34.890625-9.039063 9.324219-21.472657 14.585937-34.460938 14.585937h-16c-4.414062-.003906-7.996094-3.582031-8-8zm-64 136c0 4.417969-3.578125 8-8 8-4.417969 0-8-3.582031-8-8v-32h16zm16-56c0 4.417969-3.582031 7.996094-8 8h-32c-4.414062-.003906-7.996094-3.582031-8-8v-80c.003906-4.417968 3.585938-7.996094 8-8h32c4.417969.003906 8 3.582032 8 8zm16-32v-16h16v16zm0 0"/><path d="m40 480.003906v-137.472656c9.5625-3.371094 15.972656-12.390625 16-22.527344v-38.242187c5.074219-4.511719 7.984375-10.96875 8-17.757813v-80c-.015625-6.789062-2.925781-13.246094-8-17.757812v-128.664063l-24-36-24 36v128.664063c-5.070312 4.511718-7.9804688 10.96875-8 17.757812v80c.0195312 6.789063 2.929688 13.246094 8 17.757813v38.242187c.03125 10.136719 6.441406 19.15625 16 22.523438v137.476562zm0-160c0 4.417969-3.578125 8-8 8-4.417969 0-8-3.582031-8-8v-32h16zm-16-277.578125 8-12 8 12v53.578125h-16zm0 69.578125h16v16h-16zm0 32h16v16h-16zm-8 120v-80c.003906-4.417968 3.585938-7.996094 8-8h16c4.417969.003906 8 3.582032 8 8v80c0 4.417969-3.582031 7.996094-8 8h-16c-4.414062-.003906-7.996094-3.582031-8-8zm0 0"/></svg>