<svg height="480pt" viewBox="-88 0 480 480" width="480pt" xmlns="http://www.w3.org/2000/svg"><path d="m0 464h16v16h-16zm0 0"/><path d="m304 152c0-83.949219-68.050781-152-152-152s-152 68.050781-152 152v296h16v-296c0-75.109375 60.890625-136 136-136s136 60.890625 136 136v296h16zm0 0"/><path d="m288 464h16v16h-16zm0 0"/><path d="m48 464h16v16h-16zm0 0"/><path d="m256 158.914062c-.601562-57.011718-46.984375-102.910156-104-102.910156s-103.398438 45.898438-104 102.910156v289.085938h16v-289.085938c.597656-48.175781 39.820312-86.914062 88-86.914062s87.402344 38.738281 88 86.914062v289.085938h16zm0 0"/><path d="m240 464h16v16h-16zm0 0"/><path d="m208 162.171875c.78125-20.515625-9.71875-39.816406-27.367188-50.304687-17.648437-10.488282-39.617187-10.488282-57.265624 0-17.648438 10.488281-28.148438 29.789062-27.367188 50.304687v61.828125c0 17.671875 14.328125 32 32 32s32-14.328125 32-32v-64h-16v64c0 8.835938-7.164062 16-16 16s-16-7.164062-16-16v-61.828125c-.78125-14.796875 6.664062-28.816406 19.363281-36.449219 12.699219-7.632812 28.574219-7.632812 41.273438 0 12.699219 7.632813 20.144531 21.652344 19.363281 36.449219v285.828125h16zm0 0"/><path d="m192 464h16v16h-16zm0 0"/><path d="m96 464h16v16h-16zm0 0"/><path d="m96 272h16v176h-16zm0 0"/><path d="m144 464h16v16h-16zm0 0"/><path d="m144 272h16v176h-16zm0 0"/></svg>