<svg height="480pt" viewBox="-120 0 480 480" width="480pt" xmlns="http://www.w3.org/2000/svg"><path d="m56 48h32v32h-32zm0 0"/><path d="m152 48h32v32h-32zm0 0"/><path d="m192 0h-144c-13.25.015625-23.984375 10.75-24 24v136c-13.25.015625-23.984375 10.75-24 24v272c.015625 13.25 10.75 23.984375 24 24h192c13.25-.015625 23.984375-10.75 24-24v-272c-.015625-13.25-10.75-23.984375-24-24v-136c-.015625-13.25-10.75-23.984375-24-24zm-64 16h64c4.417969.003906 7.996094 3.582031 8 8v136h-72zm-88 8c.003906-4.417969 3.582031-7.996094 8-8h64v144h-72zm184 432c-.003906 4.417969-3.582031 7.996094-8 8h-192c-4.417969-.003906-7.996094-3.582031-8-8v-24h208zm0-40h-208v-192h208zm0-232v24h-208v-24c.003906-4.417969 3.582031-7.996094 8-8h192c4.417969.003906 7.996094 3.582031 8 8zm0 0"/></svg>