<svg height="480pt" viewBox="0 -48 480 480" width="480pt" xmlns="http://www.w3.org/2000/svg"><path d="m216 104h-192c-13.25.015625-23.984375 10.75-24 24v232c.015625 13.25 10.75 23.984375 24 24h192c13.25-.015625 23.984375-10.75 24-24v-232c-.015625-13.25-10.75-23.984375-24-24zm8 256c-.003906 4.417969-3.582031 7.996094-8 8h-192c-4.417969-.003906-7.996094-3.582031-8-8v-232c.003906-4.417969 3.582031-7.996094 8-8h192c4.417969.003906 7.996094 3.582031 8 8zm0 0"/><path d="m120 208c-13.253906 0-24 10.746094-24 24s10.746094 24 24 24 24-10.746094 24-24c-.015625-13.25-10.75-23.984375-24-24zm0 32c-4.417969 0-8-3.582031-8-8s3.582031-8 8-8 8 3.582031 8 8c-.003906 4.417969-3.582031 7.996094-8 8zm0 0"/><path d="m206.226562 294.226562c.019532-6.367187-2.515624-12.480468-7.03125-16.96875l-8.371093-8.378906c18.441406-35.207031 8.410156-78.605468-23.613281-102.148437-32.019532-23.546875-76.4375-20.179688-104.542969 7.925781-28.105469 28.101562-31.476563 72.519531-7.9375 104.542969 23.539062 32.023437 66.9375 42.058593 102.148437 23.621093l8.375 8.375c6.863282 6.863282 17.1875 8.917969 26.15625 5.203126 8.964844-3.714844 14.816406-12.464844 14.816406-22.171876zm-150.226562-62.226562c-.105469-26.066406 15.605469-49.59375 39.726562-59.480469 24.117188-9.886719 51.820313-4.160156 70.042969 14.484375 18.21875 18.640625 23.3125 46.46875 12.878907 70.355469-9.515626-6.421875-22.246094-5.195313-30.363282 2.921875-8.117187 8.117188-9.34375 20.851562-2.921875 30.367188-19.757812 8.648437-42.546875 6.726562-60.578125-5.105469-18.027344-11.832031-28.859375-31.976563-28.785156-53.542969zm131.882812 67.882812c-3.125 3.125-8.191406 3.125-11.316406 0l-16.96875-16.96875c-3.097656-3.128906-3.085937-8.175781.027344-11.289062s8.160156-3.128906 11.289062-.03125l16.972657 16.984375c3.121093 3.121094 3.121093 8.183594-.003907 11.304687zm0 0"/><path d="m32 136h16v16h-16zm0 0"/><path d="m192 136h16v16h-16zm0 0"/><path d="m32 336h16v16h-16zm0 0"/><path d="m192 336h16v16h-16zm0 0"/><path d="m456 0h-312c-13.25.015625-23.984375 10.75-24 24v64h16v-64c.003906-4.417969 3.582031-7.996094 8-8h312c4.417969.003906 7.996094 3.582031 8 8v183.683594l-208.011719.316406.023438 16 207.988281-.316406v56.316406c-.003906 4.417969-3.582031 7.996094-8 8h-200v16h3.054688l32 64h-35.054688v16h136v-16h-11.054688l-32-64h107.054688c13.25-.015625 23.984375-10.75 24-24v-256c-.015625-13.25-10.75-23.984375-24-24zm-92.945312 368h-54.109376l-32-64h54.109376zm0 0"/><path d="m320 256c0 8.835938-7.164062 16-16 16s-16-7.164062-16-16 7.164062-16 16-16 16 7.164062 16 16zm0 0"/></svg>