<svg height="480pt" viewBox="-88 0 480 480" width="480pt" xmlns="http://www.w3.org/2000/svg"><path d="m176 480v-80h21.164062c9.824219.03125 18.667969-5.953125 22.289063-15.085938l10.679687-26.703124c6.074219-2.417969 10.890626-7.226563 13.320313-13.296876l9.964844-24.914062h26.582031c13.25-.015625 23.984375-10.75 24-24v-272c-.015625-13.25-10.75-23.984375-24-24h-256c-13.25.015625-23.984375 10.75-24 24v272c.015625 13.25 10.75 23.984375 24 24h26.582031l9.964844 24.914062c2.429687 6.070313 7.246094 10.878907 13.320313 13.296876l10.679687 26.703124c3.621094 9.132813 12.464844 15.117188 22.289063 15.085938h21.164062v80h16v-80h16v80zm-16-464h64v216c-.003906 4.417969-3.582031 7.996094-8 8h-56zm-80 0h64v224h-56c-4.417969-.003906-7.996094-3.582031-8-8zm-56 288c-4.417969-.003906-7.996094-3.582031-8-8v-272c.003906-4.417969 3.582031-7.996094 8-8h40v216c.015625 13.25 10.75 23.984375 24 24h128c13.25-.015625 23.984375-10.75 24-24v-216h40c4.417969.003906 7.996094 3.582031 8 8v272c-.003906 4.417969-3.582031 7.996094-8 8zm58.835938 40c-3.277344.011719-6.226563-1.984375-7.429688-5.03125l-7.585938-18.96875h168.359376l-7.585938 18.96875c-1.203125 3.046875-4.152344 5.042969-7.429688 5.03125zm24 40c-3.277344.011719-6.226563-1.984375-7.429688-5.03125l-7.585938-18.96875h120.359376l-7.585938 18.96875c-1.203125 3.046875-4.152344 5.042969-7.429688 5.03125zm0 0"/></svg>