<svg height="480pt" viewBox="0 0 480 480" width="480pt" xmlns="http://www.w3.org/2000/svg"><path d="m88 94.140625c0-1.976563.730469-3.882813 2.050781-5.351563l63.132813-70.144531c1.515625-1.683593 3.675781-2.644531 5.941406-2.644531h224.875c4.414062.003906 7.996094 3.585938 8 8v160h16v-160c-.015625-13.25-10.75-23.984375-24-24h-224.875c-6.800781.00390625-13.285156 2.890625-17.835938 7.945312l-63.132812 70.144532c-3.964844 4.40625-6.160156 10.125-6.15625 16.050781v81.859375h16zm0 0"/><path d="m392 456c-.003906 4.414062-3.585938 7.996094-8 8h-288c-4.414062-.003906-7.996094-3.585938-8-8v-88h-16v88c.015625 13.25 10.75 23.984375 24 24h288c13.25-.015625 23.984375-10.75 24-24v-88h-16zm0 0"/><path d="m112 360v56c.015625 13.25 10.75 23.984375 24 24h208c13.25-.015625 23.984375-10.75 24-24v-56h-16v56c-.003906 4.414062-3.585938 7.996094-8 8h-208c-4.414062-.003906-7.996094-3.585938-8-8v-56zm0 0"/><path d="m352 128v56h16v-56c-.015625-13.25-10.75-23.984375-24-24h-208c-13.25.015625-23.984375 10.75-24 24v56h16v-56c.003906-4.414062 3.585938-7.996094 8-8h208c4.414062.003906 7.996094 3.585938 8 8zm0 0"/><path d="m168 48h16v32h-16zm0 0"/><path d="m200 32h16v32h-16zm0 0"/><path d="m232 32h16v32h-16zm0 0"/><path d="m264 32h16v32h-16zm0 0"/><path d="m296 32h16v32h-16zm0 0"/><path d="m328 32h16v32h-16zm0 0"/><path d="m252.945312 232-16-32h-57.890624l-20 40 16 32-16 32 20 40h57.890624l16-32h48l20-40-20-40zm-64-16h38.109376l12 24-12 24h-38.109376l-12-24zm38.109376 112h-38.109376l-12-24 12-24h38.109376l12 24zm64-32h-38.109376l-12-24 12-24h38.109376l12 24zm0 0"/><path d="m32 232h16c8.832031-.007812 15.992188-7.167969 16-16h24c4.414062.003906 7.996094 3.585938 8 8 .015625 13.25 10.75 23.984375 24 24h24v-16h-24c-4.414062-.003906-7.996094-3.585938-8-8-.015625-13.25-10.75-23.984375-24-24h-24c-.007812-8.832031-7.167969-15.992188-16-16h-16c-8.832031.007812-15.992188 7.167969-16 16v16c.007812 8.832031 7.167969 15.992188 16 16zm0-32h16v16h-16zm0 0"/><path d="m48 280h104v-16h-104c-.007812-8.832031-7.167969-15.992188-16-16h-16c-8.832031.007812-15.9921875 7.167969-16 16v16c.0078125 8.832031 7.167969 15.992188 16 16h16c8.832031-.007812 15.992188-7.167969 16-16zm-32-16h16v16h-16zm0 0"/><path d="m80 344c13.25-.015625 23.984375-10.75 24-24 .003906-4.414062 3.585938-7.996094 8-8h32v-16h-32c-13.25.015625-23.984375 10.75-24 24-.003906 4.414062-3.585938 7.996094-8 8h-8c-.007812-8.832031-7.167969-15.992188-16-16h-16c-8.832031.007812-15.992188 7.167969-16 16v16c.007812 8.832031 7.167969 15.992188 16 16h16c8.832031-.007812 15.992188-7.167969 16-16zm-40 0v-16h16l.011719 16zm0 0"/><path d="m464 248h-16c-8.832031.007812-15.992188 7.167969-16 16h-96v16h96c.007812 8.832031 7.167969 15.992188 16 16h16c8.832031-.007812 15.992188-7.167969 16-16v-16c-.007812-8.832031-7.167969-15.992188-16-16zm0 32h-16l-.011719-16h16.011719zm0 0"/><path d="m368 224c-.003906 4.414062-3.585938 7.996094-8 8h-32v16h32c13.25-.015625 23.984375-10.75 24-24 .003906-4.414062 3.585938-7.996094 8-8h24c.007812 8.832031 7.167969 15.992188 16 16h16c8.832031-.007812 15.992188-7.167969 16-16v-16c-.007812-8.832031-7.167969-15.992188-16-16h-16c-8.832031.007812-15.992188 7.167969-16 16h-24c-13.25.015625-23.984375 10.75-24 24zm64-24h16v16h-16l-.011719-16zm0 0"/><path d="m440 312h-16c-8.832031.007812-15.992188 7.167969-16 16h-8c-4.414062-.003906-7.996094-3.585938-8-8-.015625-13.25-10.75-23.984375-24-24h-40v16h40c4.414062.003906 7.996094 3.585938 8 8 .015625 13.25 10.75 23.984375 24 24h8c.007812 8.832031 7.167969 15.992188 16 16h16c8.832031-.007812 15.992188-7.167969 16-16v-16c-.007812-8.832031-7.167969-15.992188-16-16zm0 32h-16v-16h16zm0 0"/></svg>