<svg height="480pt" viewBox="0 -44 480 480" width="480pt" xmlns="http://www.w3.org/2000/svg"><path d="m24 296h192c13.25-.015625 23.984375-10.75 24-24v-120c-.015625-13.25-10.75-23.984375-24-24h-192c-13.25.015625-23.984375 10.75-24 24v120c.015625 13.25 10.75 23.984375 24 24zm186.882812-152-90.882812 69.90625-90.882812-69.90625zm-194.882812 10.089844 104 80.003906 104-80.003906v117.910156c-.003906 4.417969-3.582031 7.996094-8 8h-192c-4.417969-.003906-7.996094-3.582031-8-8zm0 0"/><path d="m256 304c-.003906 4.417969-3.582031 7.996094-8 8h-208v16h208c13.25-.015625 23.984375-10.75 24-24v-136h-16zm0 0"/><path d="m288 336c-.003906 4.417969-3.582031 7.996094-8 8h-208v16h208c13.25-.015625 23.984375-10.75 24-24v-136h-16zm0 0"/><path d="m320 368c-.003906 4.417969-3.582031 7.996094-8 8h-208v16h208c13.25-.015625 23.984375-10.75 24-24v-136h-16zm0 0"/><path d="m421.65625 154.34375-37.65625-37.65625-37.65625 37.65625 11.3125 11.3125 18.34375-18.34375v116.6875c-.003906 4.417969-3.582031 7.996094-8 8h-16v16h16c13.25-.015625 23.984375-10.75 24-24v-116.6875l18.34375 18.34375zm0 0"/><path d="m320 192h40v16h-40zm0 0"/><path d="m416 80h-24.359375c-4.140625-45.3125-42.136719-80-87.640625-80s-83.5 34.6875-87.640625 80h-24.359375c-16.757812-.042969-32.851562 6.53125-44.789062 18.289062l11.203124 11.421876c8.953126-8.816407 21.023438-13.742188 33.585938-13.710938h40v-8c0-39.765625 32.234375-72 72-72s72 32.234375 72 72v8h40c26.507812 0 48 21.492188 48 48s-21.492188 48-48 48h-8v16h8c35.347656 0 64-28.652344 64-64s-28.652344-64-64-64zm0 0"/></svg>