<svg height="480pt" viewBox="-120 0 480 480" width="480pt" xmlns="http://www.w3.org/2000/svg"><path d="m32 88v176c0 48.601562 39.398438 88 88 88s88-39.398438 88-88v-176c0-48.601562-39.398438-88-88-88s-88 39.398438-88 88zm160 176c0 39.765625-32.234375 72-72 72s-72-32.234375-72-72v-32h144zm-72-248c39.746094.042969 71.957031 32.253906 72 72v128h-144v-128c.042969-39.746094 32.253906-71.957031 72-72zm0 0"/><path d="m0 264c.101562 63.105469 49.039062 115.359375 112 119.59375v64.40625h16v-64.40625c62.960938-4.234375 111.898438-56.488281 112-119.59375v-48h-16v48c0 57.4375-46.5625 104-104 104s-104-46.5625-104-104v-48h-16zm0 0"/><path d="m112 464h16v16h-16zm0 0"/></svg>