<svg height="480pt" viewBox="-63 0 479 480" width="480pt" xmlns="http://www.w3.org/2000/svg"><path d="m304.5 112v-88c-.015625-13.25-10.75-23.984375-24-24h-208c-13.25.015625-23.984375 10.75-24 24v88h16v-88c.003906-4.414062 3.585938-7.996094 8-8h208c4.414062.003906 7.996094 3.585938 8 8v88zm0 0"/><path d="m48.5 368v88c.015625 13.25 10.75 23.984375 24 24h208c13.25-.015625 23.984375-10.75 24-24v-88h-16v16h-224v-16zm240 32v56c-.003906 4.414062-3.585938 7.996094-8 8h-208c-4.414062-.003906-7.996094-3.585938-8-8v-56zm0 0"/><path d="m192.5 432c0 8.835938-7.164062 16-16 16s-16-7.164062-16-16 7.164062-16 16-16 16 7.164062 16 16zm0 0"/><path d="m96.5 424h32v16h-32zm0 0"/><path d="m224.5 424h32v16h-32zm0 0"/><path d="m.5 152v176c.015625 13.25 10.75 23.984375 24 24h304c13.25-.015625 23.984375-10.75 24-24v-176c-.015625-13.25-10.75-23.984375-24-24h-304c-13.25.015625-23.984375 10.75-24 24zm336 1.320312v174.679688c-.003906 4.414062-3.585938 7.996094-8 8h-304c-4.414062-.003906-7.996094-3.585938-8-8v-174.671875l160 96zm-15.5625-9.320312-144.4375 86.671875-144.449219-86.671875zm0 0"/><path d="m160.5 32h32v16h-32zm0 0"/></svg>