<svg height="480pt" viewBox="0 0 480 480" width="480pt" xmlns="http://www.w3.org/2000/svg"><path d="m32 40h16v16h-16zm0 0"/><path d="m32 72h16v16h-16zm0 0"/><path d="m408 64c-17.671875 0-32 14.328125-32 32s14.328125 32 32 32 32-14.328125 32-32c-.019531-17.664062-14.335938-31.980469-32-32zm0 48c-8.835938 0-16-7.164062-16-16s7.164062-16 16-16 16 7.164062 16 16c-.007812 8.832031-7.167969 15.992188-16 16zm0 0"/><path d="m24 128h88c13.25-.015625 23.984375-10.75 24-24v-80c-.015625-13.25-10.75-23.984375-24-24h-88c-13.25.015625-23.984375 10.75-24 24v80c.015625 13.25 10.75 23.984375 24 24zm56-112h32c4.414062.003906 7.996094 3.585938 8 8v80c-.003906 4.414062-3.585938 7.996094-8 8h-32zm-64 8c.003906-4.414062 3.585938-7.996094 8-8h40v96h-40c-4.414062-.003906-7.996094-3.585938-8-8zm0 0"/><path d="m408 24h-88c-13.25.015625-23.984375 10.75-24 24v8h-144v16h144v8c.015625 13.25 10.75 23.984375 24 24h16.472656c3.78125 33.394531 30.132813 59.746094 63.527344 63.527344v16.472656c.015625 13.25 10.75 23.984375 24 24h8v144c.214844 2.179688-.558594 4.339844-2.109375 5.890625s-3.710937 2.324219-5.890625 2.109375h-128v16h128c6.421875.1875 12.636719-2.277344 17.179688-6.820312 4.542968-4.542969 7.007812-10.757813 6.820312-17.179688v-144h8c13.25-.015625 23.984375-10.75 24-24v-88c-.046875-39.746094-32.253906-71.953125-72-72zm-72 64h-16c-4.414062-.003906-7.996094-3.585938-8-8v-32c.003906-4.414062 3.585938-7.996094 8-8h16zm128 96c-.003906 4.414062-3.585938 7.996094-8 8h-32c-4.414062-.003906-7.996094-3.585938-8-8v-16h48zm0-32h-56c-30.914062-.035156-55.964844-25.085938-56-56v-56h56c30.914062.035156 55.964844 25.085938 56 56zm0 0"/><path d="m24 480h232c13.25-.015625 23.984375-10.75 24-24v-176c-.015625-13.25-10.75-23.984375-24-24h-232c-13.25.015625-23.984375 10.75-24 24v176c.015625 13.25 10.75 23.984375 24 24zm168-208h64c4.414062.003906 7.996094 3.585938 8 8v80h-72zm0 104h72v80c-.003906 4.414062-3.585938 7.996094-8 8h-64zm-176-96c.003906-4.414062 3.585938-7.996094 8-8h152v192h-152c-4.414062-.003906-7.996094-3.585938-8-8zm0 0"/></svg>