<svg height="480pt" viewBox="0 0 480 480" width="480pt" xmlns="http://www.w3.org/2000/svg"><path d="m16 264v40h16v-40c8.832031-.007812 15.992188-7.167969 16-16h40v-16h-40c-.007812-8.832031-7.167969-15.992188-16-16v-40h-16v40c-8.832031.007812-15.9921875 7.167969-16 16v16c.0078125 8.832031 7.167969 15.992188 16 16zm0-32h16l.011719 16h-16.011719zm0 0"/><path d="m16 48v40h16v-40c1.382812-.019531 2.757812-.21875 4.089844-.597656l86.253906 86.25 11.3125-11.3125-86.253906-86.25c.378906-1.332032.578125-2.707032.597656-4.089844h40v-16h-40c-.007812-8.832031-7.167969-15.9921875-16-16h-16c-8.832031.0078125-15.9921875 7.167969-16 16v16c.0078125 8.832031 7.167969 15.992188 16 16zm0-32h16l.011719 16h-16.011719zm0 0"/><path d="m248 88v-40c8.832031-.007812 15.992188-7.167969 16-16h40v-16h-40c-.007812-8.832031-7.167969-15.9921875-16-16h-16c-8.832031.0078125-15.992188 7.167969-16 16h-40v16h40c.007812 8.832031 7.167969 15.992188 16 16v40zm-16-72h16l.011719 16h-16.011719zm0 0"/><path d="m464 0h-16c-8.832031.0078125-15.992188 7.167969-16 16h-40v16h40c.019531 1.382812.21875 2.757812.597656 4.089844l-86.253906 86.253906 11.3125 11.3125 86.253906-86.253906c1.332032.378906 2.707032.578125 4.089844.597656v40h16v-40c8.832031-.007812 15.992188-7.167969 16-16v-16c-.007812-8.832031-7.167969-15.9921875-16-16zm-16 32v-16h16l.011719 16zm0 0"/><path d="m232 392v40c-8.832031.007812-15.992188 7.167969-16 16h-40v16h40c.007812 8.832031 7.167969 15.992188 16 16h16c8.832031-.007812 15.992188-7.167969 16-16h40v-16h-40c-.007812-8.832031-7.167969-15.992188-16-16v-40zm16.011719 72h-16.011719v-16h16zm0 0"/><path d="m464 432v-40h-16v40c-1.382812.019531-2.757812.21875-4.089844.597656l-86.253906-86.253906-11.3125 11.3125 86.253906 86.253906c-.378906 1.332032-.578125 2.707032-.597656 4.089844h-40v16h40c.007812 8.832031 7.167969 15.992188 16 16h16c8.832031-.007812 15.992188-7.167969 16-16v-16c-.007812-8.832031-7.167969-15.992188-16-16zm-16 32v-16h16l.011719 16zm0 0"/><path d="m464 216v-40h-16v40c-8.832031.007812-15.992188 7.167969-16 16h-40v16h40c.007812 8.832031 7.167969 15.992188 16 16v40h16v-40c8.832031-.007812 15.992188-7.167969 16-16v-16c-.007812-8.832031-7.167969-15.992188-16-16zm-16 32v-16h16l.011719 16zm0 0"/><path d="m16 480h16c8.832031-.007812 15.992188-7.167969 16-16h40v-16h-40c-.019531-1.382812-.21875-2.757812-.597656-4.089844l86.253906-86.253906-11.3125-11.3125-86.253906 86.253906c-1.332032-.378906-2.707032-.578125-4.089844-.597656v-40h-16v40c-8.832031.007812-15.9921875 7.167969-16 16v16c.0078125 8.832031 7.167969 15.992188 16 16zm0-32h16l.011719 16h-16.011719zm0 0"/><path d="m16 360h16v16h-16zm0 0"/><path d="m16 320h16v16h-16zm0 0"/><path d="m104 240c0 75.109375 60.890625 136 136 136s136-60.890625 136-136-60.890625-136-136-136c-75.074219.082031-135.917969 60.925781-136 136zm33.730469-62.453125c13.972656 4.804687 28.378906 8.238281 43.015625 10.25-2.703125 14.578125-4.230469 29.351563-4.5625 44.175781h-55.777344c1.269531-19.28125 7.214844-37.960937 17.324219-54.425781zm0 124.90625c-10.117188-16.480469-16.0625-35.179687-17.328125-54.480469h55.78125c.328125 14.84375 1.855468 29.632813 4.5625 44.230469-14.636719 2.011719-29.042969 5.445313-43.015625 10.25zm9.492187 13.546875c12.117188-3.753906 24.523438-6.492188 37.097656-8.175781 4.039063 16.847656 11.179688 32.796875 21.054688 47.035156-22.804688-6.910156-43.042969-20.433594-58.152344-38.859375zm84.777344 41.972656c-12.109375-5.871094-24-24.597656-31.632812-52.050781 10.136718-.980469 20.742187-1.578125 31.632812-1.78125zm0-69.828125c-12.152344.21875-24.027344.910157-35.34375 2.082031-2.648438-13.9375-4.144531-28.070312-4.476562-42.253906h16.949218c2.910156 11.210938 11.660156 19.96875 22.871094 22.890625zm-39.820312-56.171875c.335937-14.164062 1.832031-28.277344 4.476562-42.199218 11.316406 1.171874 23.191406 1.863281 35.34375 2.082031v17.28125c-11.1875 2.914062-19.929688 11.648437-22.855469 22.835937zm55.820312 126v-53.832031c10.890625.203125 21.496094.800781 31.632812 1.78125-7.632812 27.453125-19.523437 46.179687-31.632812 52.050781zm0-69.828125v-17.28125c11.210938-2.921875 19.960938-11.679687 22.871094-22.890625h16.949218c-.332031 14.183594-1.828124 28.316406-4.476562 42.253906-11.316406-1.171874-23.191406-1.863281-35.34375-2.082031zm26.625 66.714844c9.875-14.238281 17.015625-30.1875 21.054688-47.035156 12.574218 1.683593 24.980468 4.421875 37.097656 8.175781-15.109375 18.425781-35.347656 31.949219-58.152344 38.859375zm67.644531-52.40625c-13.972656-4.804687-28.378906-8.238281-43.015625-10.25 2.707032-14.597656 4.234375-29.386719 4.5625-44.230469h55.78125c-1.265625 19.300782-7.210937 38-17.328125 54.480469zm0-124.910156c10.109375 16.46875 16.054688 35.148437 17.324219 54.429687h-55.777344c-.332031-14.824218-1.859375-29.597656-4.5625-44.175781 14.636719-2.011719 29.042969-5.445313 43.015625-10.25zm-9.492187-13.542969c-12.117188 3.753906-24.523438 6.492188-37.097656 8.175781-4.039063-16.847656-11.179688-32.796875-21.054688-47.035156 22.804688 6.910156 43.042969 20.433594 58.152344 38.859375zm-84.777344-41.972656c12.109375 5.871094 24 24.597656 31.632812 52.050781-10.136718.980469-20.742187 1.578125-31.632812 1.78125zm0 69.828125c12.152344-.21875 24.027344-.910157 35.34375-2.082031 2.644531 13.921874 4.140625 28.035156 4.476562 42.199218h-16.964843c-2.925781-11.1875-11.667969-19.921875-22.855469-22.835937zm8 48.144531c0 8.835938-7.164062 16-16 16s-16-7.164062-16-16 7.164062-16 16-16c8.832031.007812 15.992188 7.167969 16 16zm-24-117.972656v53.832031c-10.890625-.203125-21.496094-.800781-31.632812-1.78125 7.632812-27.453125 19.523437-46.179687 31.632812-52.050781zm-26.625 3.113281c-9.875 14.238281-17.015625 30.1875-21.054688 47.035156-12.574218-1.683593-24.980468-4.421875-37.097656-8.175781 15.109375-18.425781 35.347656-31.949219 58.152344-38.859375zm0 0"/><path d="m16 104h16v16h-16zm0 0"/><path d="m16 144h16v16h-16zm0 0"/><path d="m104 16h16v16h-16zm0 0"/><path d="m144 16h16v16h-16zm0 0"/><path d="m360 16h16v16h-16zm0 0"/><path d="m320 16h16v16h-16zm0 0"/><path d="m448 104h16v16h-16zm0 0"/><path d="m448 144h16v16h-16zm0 0"/><path d="m448 360h16v16h-16zm0 0"/><path d="m448 320h16v16h-16zm0 0"/><path d="m360 448h16v16h-16zm0 0"/><path d="m320 448h16v16h-16zm0 0"/><path d="m104 448h16v16h-16zm0 0"/><path d="m144 448h16v16h-16zm0 0"/></svg>