<svg height="480pt" viewBox="0 0 480 480.00028" width="480pt" xmlns="http://www.w3.org/2000/svg"><path d="m160 384c13.25-.015625 23.984375-10.75 24-24v-152h-.074219c.027344-2.113281-.789062-4.148438-2.269531-5.65625l-64-64c-1.507812-1.480469-3.542969-2.300781-5.65625-2.273438v-.070312h-88c-13.25.015625-23.984375 10.75-24 24v200c.015625 13.25 10.75 23.984375 24 24zm-40-220.6875 36.6875 36.6875h-36.6875zm-104 196.6875v-200c.003906-4.417969 3.582031-7.996094 8-8h80v56c0 2.121094.839844 4.15625 2.34375 5.660156 1.5 1.5 3.535156 2.339844 5.65625 2.339844h56v144c-.003906 4.417969-3.582031 7.996094-8 8h-136c-4.417969-.003906-7.996094-3.582031-8-8zm0 0"/><path d="m192 400h-152v16h152c13.25-.015625 23.984375-10.75 24-24v-200c-.015625-13.25-10.75-23.984375-24-24h-8v16h8c4.417969.003906 7.996094 3.582031 8 8v200c-.003906 4.417969-3.582031 7.996094-8 8zm0 0"/><path d="m232 424c-.003906 4.417969-3.582031 7.996094-8 8h-152v16h152c13.25-.015625 23.984375-10.75 24-24v-216h-16zm0 0"/><path d="m264 456c-.003906 4.417969-3.582031 7.996094-8 8h-152v16h152c13.25-.015625 23.984375-10.75 24-24v-216h-16zm0 0"/><path d="m64 168h24v16h-24zm0 0"/><path d="m32 168h16v16h-16zm0 0"/><path d="m64 200h24v16h-24zm0 0"/><path d="m32 200h16v16h-16zm0 0"/><path d="m136 232h16v16h-16zm0 0"/><path d="m64 232h56v16h-56zm0 0"/><path d="m32 232h16v16h-16zm0 0"/><path d="m136 264h16v16h-16zm0 0"/><path d="m64 264h56v16h-56zm0 0"/><path d="m32 264h16v16h-16zm0 0"/><path d="m136 296h16v16h-16zm0 0"/><path d="m64 296h56v16h-56zm0 0"/><path d="m32 296h16v16h-16zm0 0"/><path d="m136 328h16v16h-16zm0 0"/><path d="m64 328h56v16h-56zm0 0"/><path d="m32 328h16v16h-16zm0 0"/><path d="m296 352h48c13.25-.015625 23.984375-10.75 24-24v-108.6875l18.34375 18.34375 11.3125-11.3125-37.65625-37.65625-37.65625 37.65625 11.3125 11.3125 18.34375-18.34375v108.6875c-.003906 4.417969-3.582031 7.996094-8 8h-48zm0 0"/><path d="m415.546875 152.390625c-3.890625-32.152344-31.160156-56.347656-63.546875-56.390625h-8.304688c-4.179687-54.175781-49.359374-96-103.695312-96s-99.515625 41.824219-103.695312 96h-8.304688c-13.515625-.007812-26.867188 2.984375-39.085938 8.757812l6.796876 14.484376c10.09375-4.773438 21.121093-7.246094 32.289062-7.242188h24v-8c0-48.601562 39.398438-88 88-88s88 39.398438 88 88v8h24c26.496094.027344 47.972656 21.503906 48 48v8h8c30.914062.039062 55.960938 25.085938 56 56 0 26.914062-24.601562 48-56 48h-24v16h24c40.375 0 72-28.109375 72-64-.046875-36.824219-27.835938-67.699219-64.453125-71.609375zm0 0"/><path d="m296 272h40v16h-40zm0 0"/></svg>