<svg height="480pt" viewBox="0 0 480 479" width="480pt" xmlns="http://www.w3.org/2000/svg"><path d="m80 240.5c-44.160156.050781-79.9492188 35.839844-80 80 0 41.070312 65.902344 137.664062 73.417969 148.546875l6.582031 9.53125 6.582031-9.53125c7.515625-10.882813 73.417969-107.476563 73.417969-148.546875-.050781-44.160156-35.839844-79.949219-80-80zm0 209.710938c-22.53125-33.945313-64-102.140626-64-129.710938 0-35.347656 28.652344-64 64-64s64 28.652344 64 64c0 27.570312-41.46875 95.765625-64 129.710938zm0 0"/><path d="m80 280.5c-22.089844 0-40 17.910156-40 40s17.910156 40 40 40 40-17.910156 40-40c-.027344-22.082031-17.917969-39.972656-40-40zm0 64c-13.253906 0-24-10.746094-24-24s10.746094-24 24-24 24 10.746094 24 24c-.015625 13.25-10.75 23.984375-24 24zm0 0"/><path d="m256 112.5h-112c-13.25.015625-23.984375 10.75-24 24v96h16v-96c.003906-4.417969 3.582031-7.996094 8-8h112c4.417969.003906 7.996094 3.582031 8 8v152h-88v16h88v56c-.003906 4.417969-3.582031 7.996094-8 8h-96v16h96c13.25-.015625 23.984375-10.75 24-24v-224c-.015625-13.25-10.75-23.984375-24-24zm0 0"/><path d="m456 .5h-240c-13.25.015625-23.984375 10.75-24 24v72h16v-72c.003906-4.417969 3.582031-7.996094 8-8h240c4.417969.003906 7.996094 3.582031 8 8v128h-168v16h168v56c-.003906 4.417969-3.582031 7.996094-8 8h-160v16h19.359375l22.855469 40h-18.214844v16h120v-16h-19.359375l-22.855469-40h58.214844c13.25-.015625 23.984375-10.75 24-24v-200c-.015625-13.25-10.75-23.984375-24-24zm-53.785156 288h-45.574219l-22.855469-40h45.574219zm0 0"/><path d="m216 336.5c0 8.835938-7.164062 16-16 16s-16-7.164062-16-16 7.164062-16 16-16 16 7.164062 16 16zm0 0"/><path d="m352 200.5c0 8.835938-7.164062 16-16 16s-16-7.164062-16-16 7.164062-16 16-16 16 7.164062 16 16zm0 0"/></svg>