<svg height="480pt" viewBox="0 -8 480.02771 480" width="480pt" xmlns="http://www.w3.org/2000/svg"><path d="m464 .015625h16v16h-16zm0 0"/><path d="m464 424.015625c.34375 6.464844-2.070312 12.769531-6.648438 17.347656-4.578124 4.578125-10.886718 6.996094-17.351562 6.652344h-296c-6.464844.34375-12.773438-2.074219-17.351562-6.652344-4.578126-4.578125-6.992188-10.882812-6.648438-17.347656v-88h8c13.25-.015625 23.984375-10.753906 24-24v-16h16c13.25-.015625 23.984375-10.753906 24-24v-16h8c13.25-.015625 23.984375-10.753906 24-24v-112c-.015625-13.25-10.75-23.988281-24-24h-32v-96h-16v96h-32v-96h-16v96h-32v-96h-16v96h-32c-13.25.011719-23.984375 10.75-24 24v112c.015625 13.246094 10.75 23.984375 24 24h8v16c.015625 13.246094 10.75 23.984375 24 24h16v16c.015625 13.246094 10.75 23.984375 24 24h8v88c-.40625 10.726563 3.675781 21.140625 11.269531 28.730469 7.589844 7.589844 18.003907 11.675781 28.730469 11.269531h296c10.726562.40625 21.140625-3.679687 28.730469-11.269531 7.59375-7.589844 11.675781-18.003906 11.269531-28.730469v-392h-16zm-440-184c-4.414062-.007813-7.996094-3.585937-8-8v-112c.003906-4.417969 3.585938-7.996094 8-8h176c4.414062.003906 7.996094 3.582031 8 8v112c-.003906 4.414063-3.585938 7.992187-8 8zm32 40c-4.414062-.007813-7.996094-3.585937-8-8v-16h128v16c-.003906 4.414063-3.585938 7.992187-8 8zm40 40c-4.414062-.007813-7.996094-3.585937-8-8v-16h48v16c-.003906 4.414063-3.585938 7.992187-8 8zm0 0"/></svg>