<svg height="480pt" viewBox="0 0 480 480" width="480pt" xmlns="http://www.w3.org/2000/svg"><path d="m456 320h-96c-13.25.015625-23.984375 10.75-24 24v80c.015625 13.25 10.75 23.984375 24 24h40v16h-24v16h64v-16h-24v-16h40c13.25-.015625 23.984375-10.75 24-24v-80c-.015625-13.25-10.75-23.984375-24-24zm8 104c-.003906 4.417969-3.582031 7.996094-8 8h-96c-4.417969-.003906-7.996094-3.582031-8-8v-8h112zm0-24h-112v-56c.003906-4.417969 3.582031-7.996094 8-8h96c4.417969.003906 7.996094 3.582031 8 8zm0 0"/><path d="m288 448c13.25-.015625 23.984375-10.75 24-24v-80c-.015625-13.25-10.75-23.984375-24-24h-96c-13.25.015625-23.984375 10.75-24 24v80c.015625 13.25 10.75 23.984375 24 24h40v16h-24v16h64v-16h-24v-16zm-104-104c.003906-4.417969 3.582031-7.996094 8-8h96c4.417969.003906 7.996094 3.582031 8 8v56h-112zm8 88c-4.417969-.003906-7.996094-3.582031-8-8v-8h112v8c-.003906 4.417969-3.582031 7.996094-8 8zm0 0"/><path d="m24 448h40v16h-24v16h64v-16h-24v-16h40c13.25-.015625 23.984375-10.75 24-24v-80c-.015625-13.25-10.75-23.984375-24-24h-96c-13.25.015625-23.984375 10.75-24 24v80c.015625 13.25 10.75 23.984375 24 24zm-8-104c.003906-4.417969 3.582031-7.996094 8-8h96c4.417969.003906 7.996094 3.582031 8 8v56h-112zm0 72h112v8c-.003906 4.417969-3.582031 7.996094-8 8h-96c-4.417969-.003906-7.996094-3.582031-8-8zm0 0"/><path d="m416 304v-24c-.015625-13.25-10.75-23.984375-24-24h-144v-32h-16v32h-144c-13.25.015625-23.984375 10.75-24 24v24h16v-24c.003906-4.417969 3.582031-7.996094 8-8h144v32h16v-32h144c4.417969.003906 7.996094 3.582031 8 8v24zm0 0"/><path d="m336 208c13.25-.015625 23.984375-10.75 24-24v-160c-.015625-13.25-10.75-23.984375-24-24h-192c-13.25.015625-23.984375 10.75-24 24v160c.015625 13.25 10.75 23.984375 24 24zm-120-192h120c4.417969.003906 7.996094 3.582031 8 8v40h-128zm0 64h128v48h-128zm0 64h128v40c-.003906 4.417969-3.582031 7.996094-8 8h-120zm-80-120c.003906-4.417969 3.582031-7.996094 8-8h56v48h-64zm0 56h64v48h-64zm0 104v-40h64v48h-56c-4.417969-.003906-7.996094-3.582031-8-8zm0 0"/><path d="m240 32h16v16h-16zm0 0"/><path d="m272 32h16v16h-16zm0 0"/><path d="m304 32h16v16h-16zm0 0"/><path d="m240 96h16v16h-16zm0 0"/><path d="m272 96h16v16h-16zm0 0"/><path d="m304 96h16v16h-16zm0 0"/><path d="m240 160h16v16h-16zm0 0"/><path d="m272 160h16v16h-16zm0 0"/><path d="m304 160h16v16h-16zm0 0"/><path d="m160 32h16v16h-16zm0 0"/><path d="m160 96h16v16h-16zm0 0"/><path d="m160 160h16v16h-16zm0 0"/></svg>