<svg height="480pt" viewBox="0 1 480 479" width="480pt" xmlns="http://www.w3.org/2000/svg"><path d="m184 160.5h-160c-13.25.015625-23.984375 10.75-24 24v272c.015625 13.25 10.75 23.984375 24 24h160c13.25-.015625 23.984375-10.75 24-24v-272c-.015625-13.25-10.75-23.984375-24-24zm8 296c-.003906 4.417969-3.582031 7.996094-8 8h-160c-4.417969-.003906-7.996094-3.582031-8-8v-56h176zm0-72h-176v-200c.003906-4.417969 3.582031-7.996094 8-8h160c4.417969.003906 7.996094 3.582031 8 8zm0 0"/><path d="m120 432.5c0 8.835938-7.164062 16-16 16s-16-7.164062-16-16 7.164062-16 16-16 16 7.164062 16 16zm0 0"/><path d="m224 192.5h88v16h-88zm0 0"/><path d="m416 80.5h-24.359375c-4.140625-45.3125-42.136719-80-87.640625-80s-83.5 34.6875-87.640625 80h-24.359375c-35.328125.039062-63.960938 28.671875-64 64h16c.027344-26.496094 21.503906-47.972656 48-48h40v-8c0-39.765625 32.234375-72 72-72s72 32.234375 72 72v8h40c26.507812 0 48 21.492188 48 48s-21.492188 48-48 48h-56v16h56c35.347656 0 64-28.652344 64-64s-28.652344-64-64-64zm0 0"/><path d="m88 192.5h32v16h-32zm0 0"/><path d="m373.65625 154.84375-37.65625-37.65625-37.65625 37.65625 11.3125 11.3125 18.34375-18.34375v172.6875c-.003906 4.417969-3.582031 7.996094-8 8h-96v16h96c13.25-.015625 23.984375-10.75 24-24v-172.6875l18.34375 18.34375zm0 0"/></svg>