<svg height="480pt" viewBox="-72 0 480 480" width="480pt" xmlns="http://www.w3.org/2000/svg"><path d="m312 480c13.25-.015625 23.984375-10.75 24-24v-432c-.015625-13.25-10.75-23.984375-24-24h-288c-13.25.015625-23.984375 10.75-24 24v432c.015625 13.25 10.75 23.984375 24 24zm-296-456c.003906-4.417969 3.582031-7.996094 8-8h288c4.417969.003906 7.996094 3.582031 8 8v248h-304zm0 432v-168h304v168c-.003906 4.417969-3.582031 7.996094-8 8h-288c-4.417969-.003906-7.996094-3.582031-8-8zm0 0"/><path d="m168 48c-53.019531 0-96 42.980469-96 96s42.980469 96 96 96 96-42.980469 96-96c-.058594-52.996094-43.003906-95.941406-96-96zm0 176c-44.183594 0-80-35.816406-80-80s35.816406-80 80-80 80 35.816406 80 80c-.050781 44.160156-35.839844 79.949219-80 80zm0 0"/><path d="m168 96c-26.507812 0-48 21.492188-48 48s21.492188 48 48 48 48-21.492188 48-48c-.027344-26.496094-21.503906-47.972656-48-48zm0 80c-17.671875 0-32-14.328125-32-32s14.328125-32 32-32 32 14.328125 32 32c-.019531 17.664062-14.335938 31.980469-32 32zm0 0"/><path d="m80 56c0 8.835938-7.164062 16-16 16s-16-7.164062-16-16 7.164062-16 16-16 16 7.164062 16 16zm0 0"/><path d="m288 56c0 8.835938-7.164062 16-16 16s-16-7.164062-16-16 7.164062-16 16-16 16 7.164062 16 16zm0 0"/><path d="m80 232c0 8.835938-7.164062 16-16 16s-16-7.164062-16-16 7.164062-16 16-16 16 7.164062 16 16zm0 0"/><path d="m288 232c0 8.835938-7.164062 16-16 16s-16-7.164062-16-16 7.164062-16 16-16 16 7.164062 16 16zm0 0"/><path d="m88 398.523438v41.476562h16v-41.472656c9.582031-3.34375 16-12.378906 16-22.527344s-6.417969-19.183594-16-22.527344v-41.472656h-16v41.472656c-9.582031 3.34375-16 12.378906-16 22.527344s6.417969 19.183594 16 22.523438zm8-30.523438c4.417969 0 8 3.582031 8 8s-3.582031 8-8 8-8-3.582031-8-8c.003906-4.417969 3.582031-7.996094 8-8zm0 0"/><path d="m160 382.523438v57.476562h16v-57.472656c9.582031-3.34375 16-12.378906 16-22.527344s-6.417969-19.183594-16-22.527344v-25.472656h-16v25.472656c-9.582031 3.34375-16 12.378906-16 22.527344s6.417969 19.183594 16 22.523438zm8-30.523438c4.417969 0 8 3.582031 8 8s-3.582031 8-8 8-8-3.582031-8-8c.003906-4.417969 3.582031-7.996094 8-8zm0 0"/><path d="m232 422.523438v17.476562h16v-17.472656c9.582031-3.34375 16-12.378906 16-22.527344s-6.417969-19.183594-16-22.527344v-65.472656h-16v65.472656c-9.582031 3.34375-16 12.378906-16 22.527344s6.417969 19.183594 16 22.523438zm8-30.523438c4.417969 0 8 3.582031 8 8s-3.582031 8-8 8-8-3.582031-8-8c.003906-4.417969 3.582031-7.996094 8-8zm0 0"/></svg>