<svg height="480pt" viewBox="0 -16 480 480" width="480pt" xmlns="http://www.w3.org/2000/svg"><path d="m24 448h192c13.25-.015625 23.984375-10.75 24-24v-272c-.015625-13.25-10.75-23.984375-24-24h-192c-13.25.015625-23.984375 10.75-24 24v272c.015625 13.25 10.75 23.984375 24 24zm-8-296c.003906-4.417969 3.582031-7.996094 8-8h192c4.417969.003906 7.996094 3.582031 8 8v120h-208zm0 136h208v136c-.003906 4.417969-3.582031 7.996094-8 8h-192c-4.417969-.003906-7.996094-3.582031-8-8zm0 0"/><path d="m138 192.128906c8.507812 9.648438 7.898438 24.289063-1.386719 33.195313-9.285156 8.90625-23.941406 8.90625-33.226562 0-9.285157-8.90625-9.894531-23.546875-1.386719-33.195313l-12-10.585937c-14.183594 16.082031-13.164062 40.484375 2.3125 55.328125 15.476562 14.839844 39.898438 14.839844 55.375 0 15.476562-14.84375 16.496094-39.246094 2.3125-55.328125zm0 0"/><path d="m112 160h16v48h-16zm0 0"/><path d="m434.867188 208.378906c-4.558594-5.320312-11.21875-8.382812-18.226563-8.378906h-136.640625c-13.25.015625-23.984375 10.75-24 24v200c.015625 13.25 10.75 23.984375 24 24h176c13.25-.015625 23.984375-10.75 24-24v-154.082031c-.003906-5.730469-2.054688-11.265625-5.78125-15.617188zm29.132812 215.621094c-.003906 4.417969-3.582031 7.996094-8 8h-176c-4.417969-.003906-7.996094-3.582031-8-8v-200c.003906-4.417969 3.582031-7.996094 8-8h136.640625c2.335937-.003906 4.558594 1.015625 6.078125 2.792969l39.359375 45.921875c1.238281 1.453125 1.917969 3.296875 1.921875 5.203125zm0 0"/><path d="m424 272h-112.515625c-13.25.015625-23.984375 10.75-24 24v96c.015625 13.25 10.75 23.984375 24 24h112.515625c13.25-.015625 23.984375-10.75 24-24v-96c-.015625-13.25-10.75-23.984375-24-24zm8 120c-.003906 4.417969-3.582031 7.996094-8 8h-24v-64h32zm0-72h-48v80h-32v-56h-16v56h-24.515625c-4.417969-.003906-7.996094-3.582031-8-8v-96c.003906-4.417969 3.582031-7.996094 8-8h24.515625v24h16v-24h32v16h16v-16h24c4.417969.003906 7.996094 3.582031 8 8zm0 0"/><path d="m232 96v16c17.664062.019531 31.980469 14.335938 32 32h16c-.027344-26.496094-21.503906-47.972656-48-48zm0 0"/><path d="m312 144c-.050781-44.160156-35.839844-79.949219-80-80v16c35.328125.039062 63.960938 28.671875 64 64zm0 0"/><path d="m344 144c-.070312-61.828125-50.171875-111.929688-112-112v16c52.996094.058594 95.941406 43.003906 96 96zm0 0"/><path d="m376 144c-.089844-79.492188-64.507812-143.9101562-144-144v16c70.660156.082031 127.917969 57.339844 128 128zm0 0"/><path d="m128 400h16v16h-16zm0 0"/><path d="m160 400h16v16h-16zm0 0"/><path d="m192 400h16v16h-16zm0 0"/></svg>