<svg height="480pt" viewBox="0 -16 480 480" width="480pt" xmlns="http://www.w3.org/2000/svg"><path d="m192 400v32h-32v16h160v-16h-32v-32h-16v32h-64v-32zm0 0"/><path d="m456 0h-432c-13.25.015625-23.984375 10.75-24 24v336c.015625 13.25 10.75 23.984375 24 24h432c13.25-.015625 23.984375-10.75 24-24v-336c-.015625-13.25-10.75-23.984375-24-24zm8 360c-.003906 4.417969-3.582031 7.996094-8 8h-432c-4.417969-.003906-7.996094-3.582031-8-8v-72h448zm-448-88v-248c.003906-4.417969 3.582031-7.996094 8-8h432c4.417969.003906 7.996094 3.582031 8 8v248zm0 0"/><path d="m256 328c0 8.835938-7.164062 16-16 16s-16-7.164062-16-16 7.164062-16 16-16 16 7.164062 16 16zm0 0"/><path d="m240 104c-22.089844 0-40 17.910156-40 40s17.910156 40 40 40 40-17.910156 40-40c-.027344-22.082031-17.917969-39.972656-40-40zm0 64c-13.253906 0-24-10.746094-24-24s10.746094-24 24-24 24 10.746094 24 24c-.015625 13.25-10.75 23.984375-24 24zm0 0"/><path d="m320.355469 108.898438 21.464843-21.46875-45.25-45.25-21.46875 21.460937-3.101562-1.296875v-30.34375h-64v30.34375l-3.101562 1.296875-21.46875-21.460937-45.25 45.25 21.464843 21.46875-1.300781 3.101562h-30.34375v64h30.34375l1.300781 3.101562-21.464843 21.46875 45.25 45.25 21.46875-21.460937 3.101562 1.296875v30.34375h64v-30.34375l3.101562-1.296875 21.46875 21.460937 45.25-45.25-21.464843-21.46875 1.300781-3.101562h30.34375v-64h-30.34375zm15.644531 51.101562h-25l-9.542969 22.835938 17.738281 17.734374-22.625 22.625-17.742187-17.742187-22.828125 9.546875v25h-32v-25l-22.828125-9.546875-17.742187 17.742187-22.625-22.625 17.738281-17.734374-9.542969-22.835938h-25v-32h25l9.542969-22.835938-17.738281-17.734374 22.625-22.625 17.742187 17.742187 22.828125-9.546875v-25h32v25l22.828125 9.546875 17.742187-17.742187 22.625 22.625-17.738281 17.734374 9.542969 22.835938h25zm0 0"/></svg>